<?xml version="1.0" encoding="utf-8"?>
<!-- Generator: Adobe Illustrator 23.0.2, SVG Export Plug-In . SVG Version: 6.00 Build 0)  -->
<svg version="1.1" id="Layer_1" xmlns="http://www.w3.org/2000/svg" xmlns:xlink="http://www.w3.org/1999/xlink" x="0px" y="0px"
	 viewBox="0 0 300 300" style="enable-background:new 0 0 300 300;" xml:space="preserve">
<style type="text/css">
	.st0{stroke:#000000;stroke-width:12;stroke-miterlimit:10;}
</style>
<g>
	<path d="M131.23,189.02c0,13-1.27,24.01-3.8,33.01c-2.53,9-6.33,16.36-11.4,22.07c-5.07,5.71-11.37,9.85-18.89,12.41
		c-7.53,2.56-16.36,3.84-26.49,3.84c-8.87,0-16.89-1.35-24.07-4.04c-7.18-2.69-13.3-6.53-18.37-11.53
		c-5.07-4.99-8.94-11-11.61-18.03c-2.67-7.03-4.01-14.94-4.01-23.74l16.89-0.2c0.7,14.32,4.47,24.86,11.29,31.62
		c6.83,6.77,16.78,10.15,29.87,10.15c6.75,0,12.84-0.69,18.26-2.07c5.42-1.38,10.03-4.04,13.83-7.98c3.8-3.94,6.68-9.39,8.66-16.36
		c1.97-6.96,2.96-16.09,2.96-27.39V40.64h16.89V189.02z"/>
	<path d="M154.05,174.44l78.96-0.81L178.21,40.44h14.84l94.36,215.97h-20.27l-28.29-69.36l-84.81-0.61 M235.01,174.63"/>
</g>
<line class="st0" x1="13.09" y1="37.76" x2="286.91" y2="37.76"/>
</svg>
