<?xml version="1.0" encoding="utf-8"?>
<!-- Generator: Adobe Illustrator 23.0.2, SVG Export Plug-In . SVG Version: 6.00 Build 0)  -->
<svg version="1.1" xmlns="http://www.w3.org/2000/svg" xmlns:xlink="http://www.w3.org/1999/xlink" x="0px" y="0px"
	 viewBox="0 0 64 64" style="enable-background:new 0 0 64 64;" xml:space="preserve">
<style type="text/css">
	.st0{fill:#FFFFFF;}
	.st1{fill:none;}
</style>
<g id="Layer_1">
	<g>
		<path d="M23.33,5.28c0-0.81-0.2-1.42-0.61-1.83c-0.41-0.41-1.12-0.61-2.14-0.61h-7.33V1H38.3v1.83h-7.33
			c-0.82,0-1.48,0.21-1.99,0.61c-0.51,0.41-0.76,1.02-0.76,1.83v43.37c0,4.48-1.43,7.99-4.28,10.54C21.09,61.73,17.53,63,13.25,63
			c-3.05,0-5.4-0.61-7.02-1.83c-1.63-1.22-2.44-2.65-2.44-4.28c0-1.22,0.35-2.14,1.07-2.75c0.71-0.61,1.47-0.92,2.29-0.92
			c1.02,0,1.83,0.36,2.44,1.07c0.61,0.71,0.92,1.57,0.92,2.6c0,0.41-0.05,0.76-0.15,1.07c-0.1,0.31-0.36,0.66-0.76,1.07
			c0.41,0.61,1.02,1.07,1.83,1.37c0.81,0.31,1.83,0.46,3.05,0.46c2.64,0,4.78-0.87,6.41-2.6c1.63-1.73,2.44-4.93,2.44-9.62V5.28z"/>
		<path d="M40.18,36.95l-13.36,3.21l1.41,4.18v4.3c0,0,0.34,7.08,0.62,7.9c0.41,1.18,0.72,1.17,2.11,0.84l0.89-0.21l0.31,1.28
			l-14.12,3.94l2.82-2.58l0.89-0.21c0.79-0.19,1.42-0.6,1.9-1.24c0.48-0.64,0.67-1.57,0.58-2.81L24.92,3.6h3.78l22.84,45.39
			c0.68,1.09,1.38,1.82,2.09,2.17c0.71,0.35,1.46,0.43,2.26,0.24l0.89-0.21l0.43,1.78l-12.77,3.07l-0.43-1.78l1.19-0.29
			c1.19-0.29,1.82-0.7,1.9-1.24c0.08-0.54,0.07-1.01-0.02-1.41c-0.19-0.79-0.46-1.46-0.8-2.01L40.18,36.95z M27.59,12.02l-0.3,0.07
			l-0.32,26.15l12.47-3L27.59,12.02z"/>
	</g>
</g>
<g id="Layer_2">
	<path class="st0" d="M25.78,58.03h-0.02c-0.03,0-0.06-0.07-0.06-0.16V3.24c0-0.09,0.03-0.16,0.06-0.16h0.02
		c0.03,0,0.06,0.07,0.06,0.16v54.63C25.84,57.96,25.81,58.03,25.78,58.03z"/>
	<path class="st0" d="M26.48,57.88h-0.02c-0.03,0-0.06-0.07-0.06-0.16V3.24c0-0.09,0.03-0.16,0.06-0.16h0.02
		c0.03,0,0.06,0.07,0.06,0.16v54.48C26.54,57.81,26.51,57.88,26.48,57.88z"/>
	<path class="st0" d="M27.18,57.73h-0.02c-0.03,0-0.06-0.07-0.06-0.16V3.24c0-0.09,0.03-0.16,0.06-0.16h0.02
		c0.03,0,0.06,0.07,0.06,0.16v54.32C27.24,57.65,27.21,57.73,27.18,57.73z"/>
	<path class="st0" d="M24.37,58.35h-0.02c-0.03,0-0.06-0.07-0.06-0.16V3.24c0-0.09,0.03-0.16,0.06-0.16h0.02
		c0.03,0,0.06,0.07,0.06,0.16v54.94C24.43,58.28,24.4,58.35,24.37,58.35z"/>
	<path class="st0" d="M25.07,58.19h-0.02c-0.03,0-0.06-0.07-0.06-0.16V3.24c0-0.09,0.03-0.16,0.06-0.16h0.02
		c0.03,0,0.06,0.07,0.06,0.16v54.78C25.13,58.12,25.11,58.19,25.07,58.19z"/>
	<line class="st1" x1="22.15" y1="3.08" x2="29.6" y2="3.08"/>
	<line class="st1" x1="32.08" y1="56.67" x2="14" y2="60.65"/>
</g>
</svg>
